{
  "title": "Australian Survivor - S03E07",
  "uid": 15760069,
  "size": 574447026,
  "categoryP": "video",
  "categoryS": "tv_shows",
  "magnet": "?xt=urn:btih:5797f25eec8aebba056da3a50ecb927d83e6e824&amp;dn=Australian+Survivor+-+S03E07&amp;tr=udp%3A%2F%2Ftracker.leechers-paradise.org%3A6969&amp;tr=udp%3A%2F%2Fzer0day.ch%3A1337&amp;tr=udp%3A%2F%2Fopen.demonii.com%3A1337&amp;tr=udp%3A%2F%2Ftracker.coppersurfer.tk%3A6969&amp;tr=udp%3A%2F%2Fexodus.desync.com%3A6969",
  "seeders": 46,
  "leechers": 9,
  "uploader": "Bullrout",
  "files": 1,
  "time": 1473101975,
  "description": "Australian Survivor - S03E07\r\n\r\nThe reward challenge will set tummies rumbling as the contestants compete for a barbecue feast. In the immunity challenge, each tribe will be challenged to carry their own weight to avoid tribal council.\r\n\r\nComplete name                            : Australian Survivor - S03E07.mp4\r\nFormat                                   : MPEG-4\r\nFormat profile                           : Base Media / Version 2\r\nCodec ID                                 : mp42 (mp42/isom/avc1)\r\nFile size                                : 548 MiB\r\nDuration                                 : 1h 8mn\r\nOverall bit rate mode                    : Variable\r\nOverall bit rate                         : 1 120 Kbps\r\n\r\nVideo\r\nID                                       : 2\r\nFormat                                   : AVC\r\nFormat/Info                              : Advanced Video Codec\r\nFormat profile                           :   \r\nFormat settings, CABAC                   : Yes\r\nFormat settings, ReFrames                : 3 frames\r\nCodec ID                                 : avc1\r\nCodec ID/Info                            : Advanced Video Coding\r\nDuration                                 : 1h 8mn\r\nBit rate mode                            : Variable\r\nBit rate                                 : 988 Kbps\r\nMaximum bit rate                         : 1 000 Kbps\r\nWidth                                    : 720 pixels\r\nHeight                                   : 404 pixels\r\nDisplay aspect ratio                     : 16:9\r\nOriginal display aspect ratio            : 16:9\r\nFrame rate mode                          : Constant\r\nFrame rate                               : 25.000 fps\r\nStandard                                 : PAL\r\nColor space                              : YUV\r\nChroma subsampling                       : 4:2:0\r\nBit depth                                : 8 bits\r\nScan type                                : Progressive\r\nBits/(Pixel*Frame)                       : 0.136\r\nStream size                              : 483 MiB (88%)\r\nWriting library                          : x264 core 112\r\nColor range                              : Limited\r\nColor primaries                          : BT.601 PAL\r\nTransfer characteristics                 : BT.470 System B, BT.470 System G\r\nMatrix coefficients                      : BT.601\r\n\r\nAudio\r\nID                                       : 1\r\nFormat                                   : AAC\r\nFormat/Info                              : Advanced Audio Codec\r\nFormat profile                           : LC\r\nCodec ID                                 : 40\r\nDuration                                 : 1h 8mn\r\nBit rate mode                            : Variable\r\nBit rate                                 : 128 Kbps\r\nMaximum bit rate                         : 576 Kbps\r\nChannel(s)                               : 2 channels\r\nChannel positions                        : Front: L R\r\nSampling rate                            : 48.0 KHz\r\nFrame rate                               : 46.875 fps (1024 spf)\r\nCompression mode                         : Lossy\r\nStream size                              : 62.6 MiB (11%)",
  "parsed": {
    "xt": "urn:btih:5797f25eec8aebba056da3a50ecb927d83e6e824",
    "dn": "Australian Survivor - S03E07",
    "tr": [
      "udp://exodus.desync.com:6969",
      "udp://open.demonii.com:1337",
      "udp://tracker.coppersurfer.tk:6969",
      "udp://tracker.leechers-paradise.org:6969",
      "udp://zer0day.ch:1337"
    ],
    "infoHash": "5797f25eec8aebba056da3a50ecb927d83e6e824",
    "infoHashBuffer": {
      "type": "Buffer",
      "data": [
        87,
        151,
        242,
        94,
        236,
        138,
        235,
        186,
        5,
        109,
        163,
        165,
        14,
        203,
        146,
        125,
        131,
        230,
        232,
        36
      ]
    },
    "name": "Australian Survivor - S03E07",
    "announce": [
      "udp://exodus.desync.com:6969",
      "udp://open.demonii.com:1337",
      "udp://tracker.coppersurfer.tk:6969",
      "udp://tracker.leechers-paradise.org:6969",
      "udp://zer0day.ch:1337"
    ],
    "urlList": []
  },
  "previous": 33,
  "peers": 44,
  "last_updated": "2016-12-27T00:51:13.095Z"
}